# xmcd
#
# Track frame offsets:
#	150
#	15201
#	36610
#	50394
#	68186
#	87713
#	107448
#	125622
#	142312
#	159247
#	171711
#	186014
#	206731
#
# Disc length: 2896 seconds
#
# Revision: 1
# Processed by: cddbd v1.5.2PL0 Copyright (c) Steve Scherf et al.
# Submitted via: audiograbber 1.83.01
#
DISCID=bf0b4e0d
DTITLE=Collection - Epitaph Summer Sampler 2016
DYEAR=1900
DGENRE=
TTITLE0=A Day to Remember - Paranoia
TTITLE1=letlive - Good Mourning, America
TTITLE2=Sleeping with Sirens - Better off Dead
TTITLE3=Saosin - The Silver String
TTITLE4=Falling in Reverse - Chemical Prisoner
TTITLE5=Avion Roe - Sing Me to Sleep
TTITLE6=Saywecanfly - When I Come Home
TTITLE7=Too Close to Touch - Nerve Endings
TTITLE8=Architects - Gone With the Wind
TTITLE9=Every Time I Die - The Coin Has a Say
TTITLE10=Cover Your Tracks - Spin the Bottle
TTITLE11=Parkway Drive - Crushed
TTITLE12=The Interrupters - By My Side
EXTD=
EXTT0=
EXTT1=
EXTT2=
EXTT3=
EXTT4=
EXTT5=
EXTT6=
EXTT7=
EXTT8=
EXTT9=
EXTT10=
EXTT11=
EXTT12=
PLAYORDER=
